<svg width="1252" height="177" viewBox="0 0 1252 177" fill="none" xmlns="http://www.w3.org/2000/svg">
<mask id="mask0_1498_54" style="mask-type:alpha" maskUnits="userSpaceOnUse" x="1" y="30" width="1243" height="136">
<path d="M55.8 164C43 164 33.4 161.467 27 156.4C20.7333 151.333 17.6 142.933 17.6 131.2V66.8L23.6 40H45.8V128.4C45.8 132.933 46.9333 135.8 49.2 137C51.4667 138.067 56.0667 138.6 63 138.6H74.4V162C72 162.533 69.1333 163 65.8 163.4C62.4667 163.8 59.1333 164 55.8 164ZM74.4 87.2H1V64H74.4V87.2ZM188.283 164H160.083V106.2C160.083 98.8667 158.616 93.7333 155.683 90.8C152.749 87.8667 147.349 86.4 139.483 86.4C132.149 86.4 126.749 87.8667 123.283 90.8C119.816 93.7333 118.083 99.2667 118.083 107.4H114.283L113.083 79.8H119.083C120.949 76.6 123.349 73.6667 126.283 71C129.349 68.3333 133.016 66.2 137.283 64.6C141.549 62.8667 146.349 62 151.683 62C160.216 62 167.216 63.7333 172.683 67.2C178.149 70.6667 182.083 75.3333 184.483 81.2C187.016 87.0667 188.283 93.6 188.283 100.8V164ZM118.083 164H89.8828V30H118.083V164ZM253.07 166C241.47 166 231.937 163.867 224.47 159.6C217.137 155.333 211.737 149.333 208.27 141.6C204.804 133.733 203.07 124.533 203.07 114C203.07 103.467 205.07 94.3333 209.07 86.6C213.204 78.7333 219.004 72.6667 226.47 68.4C233.937 64.1333 242.804 62 253.07 62C262.937 62 271.404 63.8667 278.47 67.6C285.537 71.2 290.937 76.2667 294.67 82.8C298.537 89.2 300.47 96.7333 300.47 105.4C300.47 108.2 300.337 110.933 300.07 113.6C299.804 116.267 299.537 118.467 299.27 120.2H215.67V102.6H275.07L273.27 104.2C273.67 100.067 273.137 96.6 271.67 93.8C270.337 91 268.004 88.9333 264.67 87.6C261.337 86.1333 257.204 85.4 252.27 85.4C243.47 85.4 237.47 87.4667 234.27 91.6C231.07 95.6 229.47 101.267 229.47 108.6V116.4C229.47 122.133 230.137 126.867 231.47 130.6C232.937 134.2 235.404 136.867 238.87 138.6C242.337 140.2 247.137 141 253.27 141C259.67 141 264.337 140.267 267.27 138.8C270.204 137.333 271.67 135.067 271.67 132V130.4H299.67V132.4C299.67 139.6 297.737 145.733 293.87 150.8C290.004 155.733 284.604 159.533 277.67 162.2C270.737 164.733 262.537 166 253.07 166ZM404.266 166C393.732 166 384.599 163.867 376.866 159.6C369.266 155.333 363.399 149.333 359.266 141.6C355.266 133.733 353.266 124.533 353.266 114C353.266 103.467 355.266 94.3333 359.266 86.6C363.399 78.7333 369.266 72.6667 376.866 68.4C384.599 64.1333 393.732 62 404.266 62C414.932 62 423.999 64.1333 431.466 68.4C438.932 72.6667 444.666 78.7333 448.666 86.6C452.666 94.3333 454.666 103.467 454.666 114C454.666 124.533 452.666 133.733 448.666 141.6C444.666 149.333 438.932 155.333 431.466 159.6C423.999 163.867 414.932 166 404.266 166ZM404.266 141C412.932 141 418.932 139.067 422.266 135.2C425.732 131.2 427.466 124.133 427.466 114C427.466 103.867 425.732 96.8667 422.266 93C418.932 89 412.932 87 404.266 87C395.732 87 389.732 89 386.266 93C382.799 96.8667 381.066 103.867 381.066 114C381.066 124.133 382.799 131.2 386.266 135.2C389.732 139.067 395.732 141 404.266 141ZM514.589 164C501.789 164 492.189 161.467 485.789 156.4C479.522 151.333 476.389 142.933 476.389 131.2V66.8L482.389 40H504.589V128.4C504.589 132.933 505.722 135.8 507.989 137C510.256 138.067 514.856 138.6 521.789 138.6H533.189V162C530.789 162.533 527.922 163 524.589 163.4C521.256 163.8 517.922 164 514.589 164ZM533.189 87.2H459.789V64H533.189V87.2ZM647.072 164H618.872V106.2C618.872 98.8667 617.405 93.7333 614.472 90.8C611.539 87.8667 606.139 86.4 598.272 86.4C590.939 86.4 585.539 87.8667 582.072 90.8C578.605 93.7333 576.872 99.2667 576.872 107.4H573.072L571.872 79.8H577.872C579.739 76.6 582.139 73.6667 585.072 71C588.139 68.3333 591.805 66.2 596.072 64.6C600.339 62.8667 605.139 62 610.472 62C619.005 62 626.005 63.7333 631.472 67.2C636.939 70.6667 640.872 75.3333 643.272 81.2C645.805 87.0667 647.072 93.6 647.072 100.8V164ZM576.872 164H548.672V30H576.872V164ZM711.859 166C700.259 166 690.726 163.867 683.259 159.6C675.926 155.333 670.526 149.333 667.059 141.6C663.593 133.733 661.859 124.533 661.859 114C661.859 103.467 663.859 94.3333 667.859 86.6C671.993 78.7333 677.793 72.6667 685.259 68.4C692.726 64.1333 701.593 62 711.859 62C721.726 62 730.193 63.8667 737.259 67.6C744.326 71.2 749.726 76.2667 753.459 82.8C757.326 89.2 759.259 96.7333 759.259 105.4C759.259 108.2 759.126 110.933 758.859 113.6C758.593 116.267 758.326 118.467 758.059 120.2H674.459V102.6H733.859L732.059 104.2C732.459 100.067 731.926 96.6 730.459 93.8C729.126 91 726.793 88.9333 723.459 87.6C720.126 86.1333 715.993 85.4 711.059 85.4C702.259 85.4 696.259 87.4667 693.059 91.6C689.859 95.6 688.259 101.267 688.259 108.6V116.4C688.259 122.133 688.926 126.867 690.259 130.6C691.726 134.2 694.193 136.867 697.659 138.6C701.126 140.2 705.926 141 712.059 141C718.459 141 723.126 140.267 726.059 138.8C728.993 137.333 730.459 135.067 730.459 132V130.4H758.459V132.4C758.459 139.6 756.526 145.733 752.659 150.8C748.793 155.733 743.393 159.533 736.459 162.2C729.526 164.733 721.326 166 711.859 166ZM803.239 164H775.039V64H801.239V92.4L803.239 93.4V164ZM803.239 101.6H797.839V80.2H802.239C804.639 75.1333 808.106 70.8667 812.639 67.4C817.172 63.8 823.039 62 830.239 62C837.439 62 843.172 63.6667 847.439 67C851.706 70.2 854.772 74.5333 856.639 80C858.506 85.3333 859.439 91.4 859.439 98.2V105.6H831.239V101C831.239 95.2667 830.239 91.3333 828.239 89.2C826.239 87.0667 822.706 86 817.639 86C812.706 86 809.039 87.1333 806.639 89.4C804.372 91.5333 803.239 95.6 803.239 101.6ZM1011.72 164H983.52V106.2C983.52 98.8667 982.054 93.7333 979.12 90.8C976.187 87.8667 970.787 86.4 962.92 86.4C955.587 86.4 950.187 87.8667 946.72 90.8C943.254 93.7333 941.52 99.2667 941.52 107.4H937.72L936.52 79.8H942.52C944.387 76.6 946.787 73.6667 949.72 71C952.787 68.3333 956.454 66.2 960.72 64.6C964.987 62.8667 969.787 62 975.12 62C983.654 62 990.654 63.7333 996.12 67.2C1001.59 70.6667 1005.52 75.3333 1007.92 81.2C1010.45 87.0667 1011.72 93.6 1011.72 100.8V164ZM941.52 164H913.32V30H941.52V164ZM1120.1 164H1094.1V146L1093.5 140.2V102C1093.5 95.4667 1091.77 91.2667 1088.3 89.4C1084.84 87.5333 1080.1 86.6 1074.1 86.6C1067.84 86.6 1063.3 87.7333 1060.5 90C1057.7 92.1333 1056.3 96 1056.3 101.6V103.6H1029.3V101.4C1029.3 93.5333 1031.24 86.6667 1035.1 80.8C1038.97 74.8 1044.3 70.2 1051.1 67C1058.04 63.6667 1066.1 62 1075.3 62C1085.04 62 1093.24 63.7333 1099.9 67.2C1106.57 70.6667 1111.57 75.6 1114.9 82C1118.37 88.4 1120.1 96 1120.1 104.8V164ZM1058.3 166C1049.37 166 1041.84 163.667 1035.7 159C1029.7 154.333 1026.7 147.533 1026.7 138.6C1026.7 133.4 1027.9 128.867 1030.3 125C1032.84 121.133 1036.5 118 1041.3 115.6C1046.1 113.067 1051.9 111.333 1058.7 110.4L1095.5 105V123.8L1063.7 128.6C1060.37 129.133 1057.9 130 1056.3 131.2C1054.7 132.4 1053.9 134.133 1053.9 136.4C1053.9 139.333 1055.04 141.4 1057.3 142.6C1059.7 143.667 1063.24 144.2 1067.9 144.2C1071.77 144.2 1075.64 143.733 1079.5 142.8C1083.5 141.733 1086.84 139.8 1089.5 137C1092.17 134.2 1093.5 130 1093.5 124.4L1096.3 150H1092.9C1091.04 152.533 1088.57 155.067 1085.5 157.6C1082.57 160 1078.84 162 1074.3 163.6C1069.9 165.2 1064.57 166 1058.3 166ZM1167.69 164H1139.49V30H1167.69V164ZM1220.36 164H1192.16V69C1192.16 60.6 1193.83 53.5333 1197.16 47.8C1200.5 41.9333 1205.36 37.5333 1211.76 34.6C1218.3 31.5333 1226.36 30 1235.96 30C1237.3 30 1238.56 30 1239.76 30C1240.96 30 1242.23 30 1243.56 30V52H1230.96C1227.1 52 1224.16 52.7333 1222.16 54.2C1220.3 55.6667 1219.36 58.1333 1219.36 61.6V68.2L1220.36 74.4V164ZM1243.56 87.2H1177.56V64H1243.56V87.2Z" fill="#E30617"/>
</mask>
<g mask="url(#mask0_1498_54)">
<rect x="-55" y="-41" width="1366" height="160" fill="white"/>
</g>
</svg>
